<svg id="Capa_1" data-name="Capa 1" xmlns="http://www.w3.org/2000/svg" viewBox="0 0 1280 822.23"><defs><style>.cls-1{opacity:0.1;}.cls-2{fill:#6c6b81;}</style></defs><title>iso fondo </title><g class="cls-1"><path class="cls-2" d="M-7.58,98.62C-11.48,89-.58,80.2,8.06,86c45.05,30.19,135.14,81.93,216.83,76.52,146.46-9.7,200.2,5,265.36,33,112.43,48.18,131.18,141.56,134,180.73a8.39,8.39,0,0,1-13.49,7.33c-16-12.31-43.24-33.33-68-52.27-37.87-29-103.84-57.08-217.45-21.63S162,437,341.88,511.09s297.31,140.48,317.6,290.24c0,0-31.21,82.08-282.09,91.75S34.14,837.74,34.14,837.74s18.82-88,74.47-214.09C164.92,496,36.18,198.07,26.8,178.85,17.59,160,3,124.86-7.58,98.62Z"/><path class="cls-2" d="M520.86,555s66.55-76,80.75-111.43c0,0,180.87,21.19,383.4,44C1128.35,503.79,752.81,548.59,520.86,555Z"/><path class="cls-2" d="M352,368.52A56.12,56.12,0,1,0,454.45,402.4c69.87,31.31,60.18,5.67,60.18,5.67-15.72-3.28-152.46-50.43-152.46-50.43Z"/><path class="cls-2" d="M-17.93,191.75C-13.63,261.84,3,404.53,67,463.8a7.69,7.69,0,0,0,13-5.33c.63-23.24-1.2-52.25-24.66-128.45C35,264,26.35,251.71-3.36,188.17-6.93,180.54-18.44,183.34-17.93,191.75Z"/></g></svg>