<svg id="Capa_1" data-name="Capa 1" xmlns="http://www.w3.org/2000/svg" viewBox="0 0 1280 822.23"><defs><style>.cls-1{opacity:0.5;}.cls-2{fill:#6c6b81;}</style></defs><title>lenga</title><g class="cls-1"><path class="cls-2" d="M314.11,671.13q-15,20.94-25.77,36.66T270.67,735q-14.55,24.27-10.51,28.54,5.68,6.11,51.25-22.15a.9.9,0,0,1,1.42.32.92.92,0,0,1-.35,1.45Q293,755.25,281.1,761t-17.74,5.72a6.17,6.17,0,0,1-4.76-1.7,5.54,5.54,0,0,1-1.38-3.7,17.85,17.85,0,0,1,1.06-6,64.46,64.46,0,0,1,3.27-8.06q2.08-4.41,5.71-10.54t7.88-12.81q4.26-6.68,10.26-15.44t12.35-17.85q6.35-9.09,14.65-20.66a.89.89,0,0,1,1.42-.25A1,1,0,0,1,314.11,671.13Z"/><path class="cls-2" d="M314.11,671.13,301.8,688.76l-12.2,17.71c-4,5.92-7.88,12-11.67,18s-7.45,12.23-10.76,18.55a105.13,105.13,0,0,0-4.53,9.62,39.08,39.08,0,0,0-1.63,4.94,16.32,16.32,0,0,0-.4,2.44,10.6,10.6,0,0,0,0,1.13,3.27,3.27,0,0,0,.23.91,1.56,1.56,0,0,0,1.09.94,5.83,5.83,0,0,0,2.13.12A22.83,22.83,0,0,0,269,762a86.83,86.83,0,0,0,9.69-4.11c6.38-3.1,12.57-6.65,18.72-10.27,3.08-1.8,6.14-3.65,9.18-5.52l2.27-1.41,1.12-.7.71-.43a2.82,2.82,0,0,1,2-.28,2.89,2.89,0,0,1,1.61,1.08,3.37,3.37,0,0,1,.67,1.41,2.82,2.82,0,0,1-.49,2.17,3.48,3.48,0,0,1-.6.61c-.2.15-.39.26-.46.31l-2.28,1.42c-6.14,3.75-12.34,7.4-18.67,10.87a138.11,138.11,0,0,1-19.75,9.16,39.61,39.61,0,0,1-5.39,1.48,16.09,16.09,0,0,1-5.94.2,7.15,7.15,0,0,1-3.09-1.36,6.28,6.28,0,0,1-2-2.82,11,11,0,0,1,0-6.08,52.43,52.43,0,0,1,3.92-10.31c1.59-3.27,3.39-6.41,5.23-9.5s3.85-6.07,5.77-9.11l2.89-4.54c1-1.52,2-3,3-4.45,4.08-5.91,8.12-11.84,12.31-17.66s8.26-11.72,12.47-17.52l6.25-8.75,3.13-4.37.78-1.1c.28-.33.46-.79.89-1C313.76,669.19,314.81,670.35,314.11,671.13Zm0,0c.7-.79-.37-1.93-1.21-1.64-.42.19-.6.65-.88,1l-.77,1.1-3.1,4.39L302,684.76c-4.15,5.85-8.11,11.83-12.14,17.75s-7.84,12-11.72,18c-1,1.52-2,3-2.87,4.54l-2.73,4.62c-1.8,3.09-3.69,6.14-5.42,9.26s-3.39,6.27-4.82,9.5a50.18,50.18,0,0,0-3.4,9.87,8.38,8.38,0,0,0,.1,4.53,3.52,3.52,0,0,0,3,2.17,13.19,13.19,0,0,0,4.73-.37,40.2,40.2,0,0,0,4.93-1.49,142.33,142.33,0,0,0,19.05-9.27c6.23-3.47,12.36-7.15,18.44-10.9l2.28-1.4.11-.07a1,1,0,0,0-.13.14,1.25,1.25,0,0,0-.2.89c.06.24.08.21.08.22a1.15,1.15,0,0,0,1.27.25l-.45.27-1.16.71-2.31,1.41q-4.62,2.79-9.29,5.5c-6.24,3.58-12.59,7-19.17,10.06a78.21,78.21,0,0,1-10.23,4,24.48,24.48,0,0,1-5.6,1.09,8.39,8.39,0,0,1-3.19-.35,4.46,4.46,0,0,1-1.63-.95,3.59,3.59,0,0,1-.64-.76,2.92,2.92,0,0,1-.44-.86,7,7,0,0,1-.32-3.25,17.2,17.2,0,0,1,.56-2.84,41.84,41.84,0,0,1,1.9-5.21c1.48-3.34,3.18-6.53,5-9.67,7.19-12.49,15.4-24.27,23.69-36l12.53-17.48Z"/><path class="cls-2" d="M363.51,722.13a.92.92,0,0,1-.57,1.38,178.24,178.24,0,0,0-22.71,11.93q-3.76,2.26-5.4,3.12Q328.52,742,324.26,742a6,6,0,0,1-5.18-2.27c-1.28-1.9-1.35-4.4-.22-7.53a29,29,0,0,1,6.39-9.65.06.06,0,0,1,.07-.07.94.94,0,0,1,.93-.85c.56-.57,1.16-1.14,1.77-1.71a42.74,42.74,0,0,1,5.64-4.22,12.88,12.88,0,0,1,4.16-1.81,8,8,0,0,1,2.52-.14,3.12,3.12,0,0,1,1.45.57c1.33,1,1.56,2.43.71,4.32s-2.73,3.53-5.5,4.62a18.34,18.34,0,0,1-10,.57,26.46,26.46,0,0,0-5.93,8.59c-1.07,2.74-1.12,4.78-.18,6.1a3.48,3.48,0,0,0,2.24,1.31,10.12,10.12,0,0,0,4.36-.42,27.64,27.64,0,0,0,6.39-2.74q1.56-.84,5.25-3.05a188.67,188.67,0,0,1,23.07-12.07A.9.9,0,0,1,363.51,722.13Zm-34.07-.61-.57.57a15,15,0,0,0,7.78-.89c2.05-.92,3.37-2,3.94-3.37.37-.85.35-1.44-.08-1.77a1.56,1.56,0,0,0-.85-.25,5.38,5.38,0,0,0-1.52.21,11,11,0,0,0-2.17.86,23.93,23.93,0,0,0-2.91,1.8C331.92,719.49,330.72,720.44,329.44,721.52Z"/><path class="cls-2" d="M363.51,722.13a.94.94,0,0,1-.05,1,2.46,2.46,0,0,1-.94.54l-2,.9q-2,.92-4,1.89c-2.63,1.29-5.2,2.69-7.73,4.16-5.09,2.88-9.89,6.21-15,9.17a24.3,24.3,0,0,1-8.5,3.12,9,9,0,0,1-4.87-.6,6.23,6.23,0,0,1-3.38-4,9.82,9.82,0,0,1,0-5,20.64,20.64,0,0,1,1.63-4.44,33.24,33.24,0,0,1,5.31-7.52l-.48,1.21a2,2,0,0,1,.07-.53,1.83,1.83,0,0,1,1.2-1.22,1.81,1.81,0,0,1,.55-.08l-1.73,1.44a2.87,2.87,0,0,1,.83-1.58,2.8,2.8,0,0,1,1.66-.73l-1.1.51,1.88-1.86c.69-.61,1.31-1.16,2-1.71a33.82,33.82,0,0,1,4.38-3.06,18.21,18.21,0,0,1,2.54-1.26,9.73,9.73,0,0,1,1.52-.46c.52-.1.94-.16,1.45-.21a6.21,6.21,0,0,1,3.54.54,5.15,5.15,0,0,1,1.59,1.31,4.55,4.55,0,0,1,.94,1.95,6,6,0,0,1-.49,3.62,8.93,8.93,0,0,1-1.76,2.66,12.84,12.84,0,0,1-5,3.13,20.33,20.33,0,0,1-11,.45l1.49-.48A29.3,29.3,0,0,0,323.3,731a16.38,16.38,0,0,0-1.54,3.39,5.12,5.12,0,0,0-.2,3.17,1.88,1.88,0,0,0,.81,1,3.64,3.64,0,0,0,1.47.47,12.42,12.42,0,0,0,3.7-.42,30.3,30.3,0,0,0,7.28-3.06c4.74-2.51,9.42-5.26,14.22-7.7,2.41-1.23,4.82-2.43,7.26-3.59,1.22-.58,2.44-1.14,3.68-1.68l1.85-.8a1.85,1.85,0,0,1,1-.25A1,1,0,0,1,363.51,722.13Zm0,0a1,1,0,0,0-.71-.65,1.86,1.86,0,0,0-1,.27l-1.84.82c-1.23.56-2.45,1.14-3.66,1.73-2.42,1.18-4.81,2.43-7.15,3.76s-4.67,2.69-7,4.11-4.55,2.89-6.86,4.31a33,33,0,0,1-7.37,3.7,14.13,14.13,0,0,1-4.26.77,5.61,5.61,0,0,1-2.4-.58,4.12,4.12,0,0,1-1.86-1.94,7.27,7.27,0,0,1-.2-4.76,18.06,18.06,0,0,1,1.54-4.08,32.15,32.15,0,0,1,4.95-6.87l.56-.63.92.15a17,17,0,0,0,9-.65,9.85,9.85,0,0,0,3.52-2.26,5.12,5.12,0,0,0,1-1.56,2.29,2.29,0,0,0,.24-1.31.62.62,0,0,0-.16-.31,1.61,1.61,0,0,0-.35-.29,2.81,2.81,0,0,0-1.41-.15c-.33,0-.75.09-1.06.14a5.58,5.58,0,0,0-.9.27,14.59,14.59,0,0,0-2,1,33.31,33.31,0,0,0-4,2.69l-1.9,1.52-1.78,1.64-1.1.51a.88.88,0,0,0,.42-.22.72.72,0,0,0,.22-.39l-1.73,1.45a1.93,1.93,0,0,0,.5-.08,1.71,1.71,0,0,0,1.12-1.14,1.65,1.65,0,0,0,.07-.47l-.48,1.2a33.66,33.66,0,0,0-5.12,6.56c-1.33,2.34-2.37,5.06-1.89,7.35a3.83,3.83,0,0,0,1.92,2.65,7,7,0,0,0,3.71.68,22.8,22.8,0,0,0,8.07-2.35c5.19-2.59,10.24-5.61,15.43-8.34,2.59-1.36,5.22-2.67,7.85-4,1.32-.63,2.65-1.24,4-1.84l2-.86a2.68,2.68,0,0,0,.95-.53A.94.94,0,0,0,363.51,722.13Z"/><path class="cls-2" d="M329.44,721.52l-.56.58v0a10.57,10.57,0,0,0,6.55-1.57,14.33,14.33,0,0,0,2.37-2,4.39,4.39,0,0,0,1.11-1.77.92.92,0,0,0,.19.55,1.07,1.07,0,0,0,.42.35c.12.05.14,0,.13,0a1.93,1.93,0,0,0-1-.08,10.13,10.13,0,0,0-3.11.65A17.78,17.78,0,0,0,329.44,721.52Zm0,0c1.86-1.41,3.33-3.24,5.19-4.91a9.19,9.19,0,0,1,3.23-2.22,4.82,4.82,0,0,1,2.46-.38,3.13,3.13,0,0,1,.95.29,2.65,2.65,0,0,1,1.06.94,3,3,0,0,1,.41,2.24,5.92,5.92,0,0,1-2.81,3.83,9.64,9.64,0,0,1-3.79,1.28,29.11,29.11,0,0,1-7.27-.48h0l0,0Z"/><path class="cls-2" d="M411.42,722.2c.29.64.12,1.08-.49,1.31a210.17,210.17,0,0,0-24.21,12.71,46.65,46.65,0,0,1-5.18,2.94,2.63,2.63,0,0,1-2.34.11,2.4,2.4,0,0,1-1-2.34c0-1.66.81-4.73,2.42-9.23q2.13-6.18,1.77-7A2.72,2.72,0,0,0,381,721a67.87,67.87,0,0,0-8,4.58q-4.65,3-7.7,5.21t-8.24,6.11l-1.56,1.2c-2.08,1.56-3.57,2.35-4.47,2.35a1.66,1.66,0,0,1-1.21-.5,1.83,1.83,0,0,1-.42-.92,6.77,6.77,0,0,1,.88-2.52,40.55,40.55,0,0,1,3.23-5.29,59.35,59.35,0,0,1,8.17-9.66.94.94,0,0,1,1.49,0,.9.9,0,0,1-.07,1.46,57,57,0,0,0-6.68,7.73,38.59,38.59,0,0,0-4.61,7.31,18.6,18.6,0,0,0,2.41-1.63l1.63-1.21q5.26-4,8.31-6.21t7.81-5.32a66.11,66.11,0,0,1,8.16-4.65c1.66-.71,2.86-.71,3.62,0a2.12,2.12,0,0,1,.71,1.24,5.32,5.32,0,0,1-.14,2.06c-.19.88-.42,1.72-.67,2.52s-.66,2-1.18,3.48q-2.26,6.39-2.27,8.52a1.54,1.54,0,0,0,.07.42,30.94,30.94,0,0,0,5.33-2.91,213.22,213.22,0,0,1,24.41-12.85A1,1,0,0,1,411.42,722.2Z"/><path class="cls-2" d="M411.42,722.2a1,1,0,0,1,.07.86,1.19,1.19,0,0,1-.7.52l-1.62.73L406,725.83q-3.21,1.54-6.35,3.21c-4.2,2.21-8.28,4.63-12.3,7.13l-3,1.9a17.63,17.63,0,0,1-3.23,1.7,2.74,2.74,0,0,1-2.06-.09,2.51,2.51,0,0,1-1.23-1.74,10.57,10.57,0,0,1,.23-3.75,65.24,65.24,0,0,1,1.95-6.91c.35-1.12.7-2.25,1-3.38.15-.56.29-1.12.4-1.67a6.32,6.32,0,0,0,.13-.8,2.36,2.36,0,0,0,0-.35c0-.09,0-.18,0-.05l.72.57c.08,0-.35.09-.63.24l-1,.52c-.69.37-1.38.76-2.06,1.16-1.36.81-2.7,1.67-4,2.56-2.62,1.81-5.21,3.7-7.81,5.55s-5.06,3.94-7.59,5.89c-1.3,1-2.46,2-3.92,3a13.37,13.37,0,0,1-2.42,1.36,4.43,4.43,0,0,1-1.94.37,3.45,3.45,0,0,1-2.22-1l-.07-.08-.05,0a4,4,0,0,1-.67-1.16,3.7,3.7,0,0,1-.18-.76,3.21,3.21,0,0,1,.07-.92,10.46,10.46,0,0,1,.56-1.65,21.33,21.33,0,0,1,1.34-2.71,57,57,0,0,1,3.17-4.85,57.78,57.78,0,0,1,7.52-8.82l.15-.14c.09-.07.18-.15.29-.22a3,3,0,0,1,.78-.43,2.86,2.86,0,0,1,2.26.16,3.5,3.5,0,0,1,1.19,1.08,2.79,2.79,0,0,1,.47,2.16,3.06,3.06,0,0,1-.93,1.6l-.5.46-.94.94c-1.23,1.28-2.41,2.67-3.55,4.1s-2.23,2.91-3.3,4.39a27.45,27.45,0,0,0-2.71,4.42l-2.47-2.2c.91-.63,1.76-1.13,2.74-1.84l2.9-2.09,5.83-4.14c1.95-1.37,4-2.62,6-3.94s4-2.61,6.14-3.78c1-.59,2.12-1.16,3.21-1.69.55-.27,1.09-.53,1.66-.78a8.62,8.62,0,0,1,1.92-.6,3.66,3.66,0,0,1,2.33.28,3.31,3.31,0,0,1,1,.8,3.23,3.23,0,0,1,.56,1.11,7.78,7.78,0,0,1-.51,3.94c-.32,1.19-.75,2.3-1.16,3.42l-1.23,3.35c-.41,1.11-.79,2.23-1.12,3.35-.16.56-.31,1.13-.43,1.69-.05.29-.1.57-.13.84a2.93,2.93,0,0,0,0,.41c0,.11,0,.21,0,.31l-.46-.27a11.7,11.7,0,0,0,1.89-.85l1.93-1.06,3.83-2.22q3.84-2.21,7.76-4.25c2.61-1.37,5.23-2.72,7.89-4,1.32-.64,2.66-1.26,4-1.87l2-.9a2.09,2.09,0,0,1,1.05-.3A1,1,0,0,1,411.42,722.2Zm0,0a1,1,0,0,0-.79-.69,2.17,2.17,0,0,0-1,.31l-2,.92c-1.33.62-2.66,1.26-4,1.91-2.64,1.31-5.26,2.66-7.83,4.1s-5.11,2.93-7.62,4.47l-3.76,2.34-1.89,1.16a11,11,0,0,1-2.09,1l-.38.12-.09-.4a5.21,5.21,0,0,1-.1-.57,3.85,3.85,0,0,1,0-.48,7.15,7.15,0,0,1,.1-.93c.09-.6.22-1.19.36-1.78.28-1.18.61-2.33,1-3.47l1.07-3.41c.35-1.13.72-2.27,1-3.39a7,7,0,0,0,.34-3.07,1.29,1.29,0,0,0-.27-.45,1.58,1.58,0,0,0-.41-.32,2,2,0,0,0-1.17,0,13.12,13.12,0,0,0-3,1.36c-1,.56-2,1.16-3,1.79-2,1.23-3.91,2.61-5.82,4s-3.85,2.72-5.73,4.17l-5.6,4.41-2.82,2.17c-.93.72-2.09,1.48-3.14,2.21l-.39-1-2.08-1.22a29.35,29.35,0,0,1,2.95-5.24c1.06-1.6,2.19-3.11,3.36-4.63s2.41-3,3.75-4.41l1-1.05.52-.5a.86.86,0,0,0-.2.43,1.16,1.16,0,0,0,.14.84c.06.06,0,0,.17.14a1.17,1.17,0,0,0,.9.06l.18-.08h0l-.11.1a57,57,0,0,0-7.07,8.17c-1.08,1.47-2.11,3-3,4.5a21.76,21.76,0,0,0-1.2,2.29,9.62,9.62,0,0,0-.39,1c0-.42-.07-.31,0-.25l-.12-.13s-.09,0-.07,0,.15,0,.41-.1a10,10,0,0,0,1.79-1c1.23-.78,2.5-1.84,3.82-2.76,2.65-1.85,5.27-3.74,7.95-5.55s5.43-3.53,8.19-5.24c1.39-.84,2.81-1.65,4.25-2.41.73-.38,1.46-.75,2.2-1.1.39-.18.73-.34,1.16-.52a4,4,0,0,1,.69-.23,2.43,2.43,0,0,1,1-.08l.55.08.17.49a1.87,1.87,0,0,1,.11.83,4,4,0,0,1-.06.54c-.06.34-.13.64-.21,1-.15.6-.33,1.18-.51,1.76-.37,1.15-.78,2.27-1.19,3.39a62.28,62.28,0,0,0-2.25,6.67,9.66,9.66,0,0,0-.4,3.3,1.56,1.56,0,0,0,.69,1.13,1.89,1.89,0,0,0,1.4.1,17.65,17.65,0,0,0,3.13-1.47c1-.57,2-1.19,3.06-1.79,4.11-2.4,8.29-4.64,12.51-6.81q3.16-1.63,6.38-3.15l3.24-1.48,1.63-.72a1.21,1.21,0,0,0,.69-.5A1,1,0,0,0,411.42,722.2Z"/><path class="cls-2" d="M455.15,722.23a1.1,1.1,0,0,1,0,.82,1,1,0,0,1-.6.53,228.11,228.11,0,0,0-32.37,14.62q-6.47,12.72-14.48,26.34-4,6.74-7.91,12.14a101.19,101.19,0,0,1-7.21,8.91,53.1,53.1,0,0,1-6.28,5.85,25.53,25.53,0,0,1-5.36,3.34,10.94,10.94,0,0,1-4.19,1,7.68,7.68,0,0,1-1.42-.14,4.69,4.69,0,0,1-2.76-1.92,7.06,7.06,0,0,1-1.21-3.76q-.29-5.12,4.08-13.2t13.88-17.32a148.55,148.55,0,0,1,31.3-22.72q5.12-10.14,6-13.48L425,724.36q-9.37,7-14,8.59-7.46,2.49-8.95-.57-.92-1.77.93-4.5a20.66,20.66,0,0,1,5.6-5.29,31,31,0,0,1,4.48-2.41,17.81,17.81,0,0,1,4.47-1.35,5,5,0,0,1,3.55.49,3.28,3.28,0,0,1,1.35,3.55.74.74,0,0,1-.11.39,1.31,1.31,0,0,1-.25.32.57.57,0,0,1-.35.18,3.28,3.28,0,0,1-.43,0,1.23,1.23,0,0,1-.71-.39.86.86,0,0,1-.21-.75c.09-.8-.05-1.32-.43-1.56-.76-.47-2.14-.39-4.15.25a23.81,23.81,0,0,0-6.07,3,21.4,21.4,0,0,0-3.62,3,10.52,10.52,0,0,0-2,2.6,2,2,0,0,0-.25,1.52.77.77,0,0,0,.32.29,2.29,2.29,0,0,0,.74.21,4.86,4.86,0,0,0,1.21,0,14.15,14.15,0,0,0,1.77-.32c.71-.17,1.5-.39,2.35-.68q4.32-1.49,13.41-8.23c1.52-1.14,2.44-1.8,2.77-2a1.42,1.42,0,0,1,1.85.22,1.7,1.7,0,0,1,.39.53,3,3,0,0,1,0,1.13,9,9,0,0,1-.53,2.24c-.31.9-.83,2.21-1.56,3.94s-1.69,3.77-2.88,6.14a234.93,234.93,0,0,1,30-13.35A.94.94,0,0,1,455.15,722.23Zm-49.33,41.24q7.1-11.93,13.06-23.35a143.64,143.64,0,0,0-28.18,20.8q-9.09,8.87-13.31,16.57t-3.94,12.32c.09,2.17.87,3.43,2.34,3.76s3,0,5-1.06a34,34,0,0,0,6.89-5,74.57,74.57,0,0,0,8.58-9.69A139.27,139.27,0,0,0,405.82,763.47Z"/><path class="cls-2" d="M455.15,722.23a1.1,1.1,0,0,1-.21,1.09,3.08,3.08,0,0,1-1.05.5l-2.17.82-4.33,1.7q-4.32,1.74-8.57,3.64-8.49,3.78-16.59,8.39l.08-.08c-3,5.94-6.06,11.81-9.22,17.65s-6.36,11.66-10,17.25A99.16,99.16,0,0,1,390.68,789a38.71,38.71,0,0,1-8.05,6.31,14.26,14.26,0,0,1-5.15,1.73,6,6,0,0,1-1.47,0,5.64,5.64,0,0,1-1.52-.24,6,6,0,0,1-2.63-1.72,8.34,8.34,0,0,1-2-5.47,18,18,0,0,1,.71-5.34,43.93,43.93,0,0,1,4-9.49,77.82,77.82,0,0,1,12.63-15.9,124.89,124.89,0,0,1,15.38-13,162.6,162.6,0,0,1,17-10.76l-.78.82c1.1-2.19,2.19-4.38,3.22-6.57.51-1.1,1-2.21,1.47-3.31a27,27,0,0,0,1.17-3.21l2.92,2a112.45,112.45,0,0,1-12.31,8.12,26.76,26.76,0,0,1-3.54,1.62,25.64,25.64,0,0,1-3.78,1,10.49,10.49,0,0,1-4.3,0,4.84,4.84,0,0,1-2.37-1.34,4.57,4.57,0,0,1-1.16-2.56,6.9,6.9,0,0,1,1.39-4.41,17.63,17.63,0,0,1,2.61-3,28.16,28.16,0,0,1,3-2.39,29.21,29.21,0,0,1,3.3-1.93,21.68,21.68,0,0,1,7.34-2.37,5.83,5.83,0,0,1,4.34,1.11,4.15,4.15,0,0,1,1.33,2.14,5.79,5.79,0,0,1,.06,2.26v-.16a1.92,1.92,0,0,1-.28,1c-.14.19-.27.36-.44.55a1.86,1.86,0,0,1-1,.47l-.59,0h-.07l-.11,0a2.48,2.48,0,0,1-.93-.38,2.17,2.17,0,0,1-.69-.77,2,2,0,0,1-.22-1.15,2.31,2.31,0,0,0,0-.4c0-.23-.07-.35,0-.24s0,0-.05,0a1.2,1.2,0,0,0-.28-.08,9,9,0,0,0-3.59.65,24.94,24.94,0,0,0-7,3.89,17,17,0,0,0-2.84,2.79,4.63,4.63,0,0,0-.89,1.55,1.3,1.3,0,0,0-.07.33c0,.06.06.17-.07,0a1.09,1.09,0,0,0,.51.18,7,7,0,0,0,1.86-.11c.33-.06.66-.1,1-.17l1-.26a17,17,0,0,0,3.79-1.42,66.25,66.25,0,0,0,7.11-4.27c2.34-1.52,4.46-3.26,7-4.74a1.7,1.7,0,0,1,1.25.07,2.35,2.35,0,0,1,.88.83,2,2,0,0,1,.17,1.19,6.53,6.53,0,0,1-.15,1.08,26.4,26.4,0,0,1-1.44,4c-.5,1.31-1.12,2.56-1.73,3.82L423.92,735l-.22-.21q7.68-4,15.61-7.45,4-1.73,8-3.31l4-1.55,2-.75a2.2,2.2,0,0,1,1-.23A1,1,0,0,1,455.15,722.23Zm0,0a1,1,0,0,0-.73-.71,2.12,2.12,0,0,0-1,.24l-2,.76-4,1.57c-2.68,1.08-5.33,2.19-8,3.36-5.28,2.32-10.46,4.85-15.51,7.63l-.43.24.21-.45,1.73-3.8c.58-1.27,1.18-2.53,1.65-3.84a26.46,26.46,0,0,0,1.34-3.9,5.58,5.58,0,0,0,.12-1c0-.33,0-.69-.1-.84a1.14,1.14,0,0,0-1.42-.59c-2.2,1.41-4.4,3.27-6.68,4.87a65.88,65.88,0,0,1-7.09,4.56,17.53,17.53,0,0,1-4,1.63l-1,.31c-.35.09-.71.15-1.07.22a8.15,8.15,0,0,1-2.3.17,2.26,2.26,0,0,1-1.38-.61,1.41,1.41,0,0,1-.33-1,2.88,2.88,0,0,1,.1-.7,6.44,6.44,0,0,1,1.09-2.1,19.66,19.66,0,0,1,3-3.16,26.9,26.9,0,0,1,7.43-4.41,18.05,18.05,0,0,1,2.12-.67,7,7,0,0,1,2.44-.21,3.78,3.78,0,0,1,.74.18,2.2,2.2,0,0,1,.83.52,2.42,2.42,0,0,1,.62,1.7,5.79,5.79,0,0,1,0,.65.27.27,0,0,0,0-.14c0-.05,0,0,0,0h0l-.18,0,.23,0a.72.72,0,0,0-.24.13.15.15,0,0,1,.07-.1.4.4,0,0,0-.07.19l0-.16a2.26,2.26,0,0,0-.65-2.22,3.37,3.37,0,0,0-2.55-.47,19,19,0,0,0-6.34,2.3,25.25,25.25,0,0,0-2.92,1.83,23.16,23.16,0,0,0-2.61,2.2,14,14,0,0,0-2.07,2.54,4.06,4.06,0,0,0-.81,2.37,1.43,1.43,0,0,0,.35.68,1.71,1.71,0,0,0,.79.37,7.68,7.68,0,0,0,2.9-.13,24.69,24.69,0,0,0,3.23-.92,24,24,0,0,0,3-1.47,114.93,114.93,0,0,0,11.79-8.09l1.1,1.53,1.82.46a30.81,30.81,0,0,1-1.31,3.74c-.49,1.17-1,2.31-1.52,3.44-1,2.27-2.12,4.5-3.23,6.71l-.26.52-.52.3c-11.41,6.47-22.33,13.9-31.67,23.05a74.45,74.45,0,0,0-12.35,14.94,41.08,41.08,0,0,0-4,8.65,15.67,15.67,0,0,0-.75,4.46,5.7,5.7,0,0,0,1.15,3.76c1.5,2,4.95,1.28,7.64-.09a36.71,36.71,0,0,0,7.73-5.7,98.11,98.11,0,0,0,12.63-15.09c3.78-5.41,7.12-11.14,10.49-16.85S418.91,744,422,738.12l0,0,.05,0c5.46-2.95,11.06-5.65,16.73-8.17q4.26-1.87,8.58-3.59l4.35-1.67,2.18-.81a3,3,0,0,0,1-.48A1.09,1.09,0,0,0,455.15,722.23Z"/><path class="cls-2" d="M405.82,763.47c2.23-3.86,4.49-7.7,6.55-11.66s4.1-7.92,6-11.95l.79.75a163.1,163.1,0,0,0-23.25,17.85,122.62,122.62,0,0,0-10.07,10.46c-1.54,1.85-3.06,3.7-4.41,5.66a56.26,56.26,0,0,0-3.66,6.1,28.11,28.11,0,0,0-2.51,6.46c-.53,2-.43,4.78.62,5.06a4.2,4.2,0,0,0,2.78,0,15,15,0,0,0,3.15-1.38,38.68,38.68,0,0,0,5.86-4.21,75.64,75.64,0,0,0,9.92-10.83A123.85,123.85,0,0,0,405.82,763.47Zm0,0c-2.46,4.28-5.13,8.43-7.92,12.5a95.1,95.1,0,0,1-9.29,11.61,40.56,40.56,0,0,1-5.73,4.92,17,17,0,0,1-3.47,1.89,6.6,6.6,0,0,1-4.46.32,3.91,3.91,0,0,1-2.13-1.74,6.2,6.2,0,0,1-.77-2.26,13.54,13.54,0,0,1,0-4.17,29.84,29.84,0,0,1,2.43-7.43,53.53,53.53,0,0,1,8.36-12.72,92,92,0,0,1,10.75-10.52,141.46,141.46,0,0,1,25-16.24l1.75-.92-1,1.68c-2.22,3.87-4.48,7.73-6.73,11.58S408.15,759.67,405.82,763.47Z"/><path class="cls-2" d="M497.77,721.63a1,1,0,0,1,.53.6,1.06,1.06,0,0,1,0,.82,1,1,0,0,1-.6.53q-8.6,3.06-26.13,13.21-5,2.84-7.27,4a8.49,8.49,0,0,1-3.37,1.14,1.65,1.65,0,0,1-1.21-.5c-.62-.62-.6-1.67,0-3.16a84.79,84.79,0,0,1,4.93-8.7l.64-1.13q-2.34,1-8.59,5.68l-.5.42q-9.79,7.25-12.42,4.12-1.49-1.77.92-5.93a50.21,50.21,0,0,1,8.24-9.83,16,16,0,0,1,5.53-3.72,7,7,0,0,1,4.9-.25q3.48,1.27,4.05,6.1a.94.94,0,0,1-.85,1.14,1.63,1.63,0,0,1,.56.35q1.22,1.07-.71,4.19a80,80,0,0,0-5,9q1.71-.5,9.16-4.75,17.67-10.16,26.41-13.35A1.08,1.08,0,0,1,497.77,721.63ZM455.5,732.46q8.24-6.26,10.44-6.39a.83.83,0,0,1-.57-.85q-.42-3.56-2.7-4.41a5.51,5.51,0,0,0-1.28-.14c-2.08,0-4.42,1.26-7,3.76a55.94,55.94,0,0,0-6.07,6.71,20.75,20.75,0,0,0-2.73,4.4c-.33.93-.41,1.51-.22,1.74a.72.72,0,0,0,.46.18,3.63,3.63,0,0,0,1.1-.18,13.88,13.88,0,0,0,1.81-.64,20.37,20.37,0,0,0,2.7-1.42,42.59,42.59,0,0,0,3.59-2.41Z"/><path class="cls-2" d="M497.77,721.63a1.09,1.09,0,0,1,.41,1.6,1.41,1.41,0,0,1-.79.47l-.87.33c-1.16.46-2.3,1-3.43,1.46-2.27,1-4.51,2.1-6.69,3.29q-6.58,3.51-12.92,7.43c-2.1,1.33-4.3,2.53-6.43,3.82-1.1.63-2.1,1.31-3.28,1.89a11.44,11.44,0,0,1-1.89.74,4,4,0,0,1-1.2.15,2.55,2.55,0,0,1-1.36-.48,2.43,2.43,0,0,1-.91-1.17,3.23,3.23,0,0,1-.17-1.34,7,7,0,0,1,.54-2.12c.51-1.24,1.09-2.35,1.67-3.47,1.14-2.24,2.46-4.39,3.59-6.54l1.83,2.06a18.73,18.73,0,0,0-2.16,1.28c-.72.49-1.45,1-2.17,1.55l-2.16,1.62c-.72.57-1.44,1.06-2,1.63l0,0-.08.06a45.65,45.65,0,0,1-5.89,3.92,15.2,15.2,0,0,1-3.58,1.42,7.5,7.5,0,0,1-2.28.19,4.74,4.74,0,0,1-2.61-1,4.35,4.35,0,0,1-1.5-2.56,6,6,0,0,1,.1-2.47,14.47,14.47,0,0,1,1.53-3.65,38.86,38.86,0,0,1,4.3-5.72c1.57-1.75,3.13-3.37,4.89-5a16.84,16.84,0,0,1,6.53-3.77,8.81,8.81,0,0,1,4.17-.21,7.14,7.14,0,0,1,3.74,2.16,8.36,8.36,0,0,1,1.86,3.65,13.36,13.36,0,0,1,.32,1.91,2.62,2.62,0,0,1-.35,1.7,2.33,2.33,0,0,1-1.69,1l.31-2.62a3.14,3.14,0,0,1,1.34,1.07,2.79,2.79,0,0,1,.48,1.7,5.72,5.72,0,0,1-.71,2.38c-.71,1.33-1.44,2.28-2.13,3.4L464,736.7a33.11,33.11,0,0,0-1.83,3.27l-1-1.07a34.77,34.77,0,0,0,4.52-2c1.51-.75,3-1.55,4.51-2.34l9-4.76c3-1.57,6.08-3.05,9.14-4.54,1.53-.73,3.07-1.45,4.64-2.12.78-.33,1.56-.66,2.35-1l1.19-.45A1.45,1.45,0,0,1,497.77,721.63Zm0,0a1.39,1.39,0,0,0-1.22.13l-1.18.47c-.79.31-1.57.65-2.35,1-1.55.69-3.08,1.42-4.61,2.17-3.05,1.49-6,3.17-9,4.83s-5.87,3.42-8.76,5.2l-4.39,2.63c-.74.43-1.48.85-2.24,1.27a17.18,17.18,0,0,1-2.43,1.16l-1.6.57.6-1.64a31.22,31.22,0,0,1,1.71-3.67l1.85-3.45c.6-1.13,1.35-2.33,1.79-3.33a3.3,3.3,0,0,0,.33-1.34c0-.15,0-.16,0-.13a.56.56,0,0,0-.2-.1l-.05-2.35.36-.26c.09,0-.12,0-.26.2s-.06.21-.1.06a12.62,12.62,0,0,0-.33-1.42,5.38,5.38,0,0,0-1.31-2.27,4,4,0,0,0-2.12-1.06,5.6,5.6,0,0,0-2.55.26,13.14,13.14,0,0,0-5,3.2c-1.53,1.49-3.11,3.13-4.53,4.77a34.36,34.36,0,0,0-3.79,5.17,10.53,10.53,0,0,0-1.15,2.57,2.33,2.33,0,0,0-.08.89.44.44,0,0,0,.17.32,1,1,0,0,0,.5.18,4.14,4.14,0,0,0,1.09-.1,12.66,12.66,0,0,0,2.72-1,41.36,41.36,0,0,0,5.53-3.4l-.09.08c.75-.66,1.57-1.17,2.31-1.71s1.52-1.06,2.3-1.56,1.57-1,2.38-1.49a19.9,19.9,0,0,1,2.65-1.37l4-1.66-2.22,3.72c-1.31,2.19-2.72,4.2-4,6.3-.64,1-1.28,2.11-1.79,3.14a5,5,0,0,0-.5,1.44c0,.46,0,.6.19.8.24.39,1.59.05,2.63-.4s2.2-1.07,3.31-1.6c2.21-1.12,4.43-2.21,6.62-3.41,4.4-2.32,8.79-4.67,13.27-6.84,2.24-1.07,4.47-2.18,6.76-3.16q1.71-.75,3.45-1.41l.88-.32a1.39,1.39,0,0,0,.78-.46A1.07,1.07,0,0,0,497.77,721.63Z"/><path class="cls-2" d="M455.5,732.46l4.88-3.78c.82-.62,1.63-1.26,2.49-1.87.43-.3.88-.58,1.35-.85a5.12,5.12,0,0,1,1.67-.68l-.23,1.52a1.66,1.66,0,0,1-.87-.6,1.91,1.91,0,0,1-.33-1v.1a6.24,6.24,0,0,0-.92-2.14,2.31,2.31,0,0,0-1.4-1l.16,0a6.73,6.73,0,0,0-4.49,1.75,25.32,25.32,0,0,0-2.18,1.9l-2.24,2.15c-1.49,1.45-2.95,2.87-4.32,4.4-.68.79-1.39,1.56-2,2.36a7.18,7.18,0,0,0-.76,1.19,6.27,6.27,0,0,0-.27.63c-.09.17,0,.43-.17.19l0-.06c-.17-.07,0,.07.13.06a3.59,3.59,0,0,0,.62-.05c.45-.08.9-.21,1.36-.32a5.22,5.22,0,0,0,1.33-.45l1.31-.57a17.59,17.59,0,0,0,2.5-1.41C453.91,733.53,454.72,733,455.5,732.46Zm0,0-2.35,1.66a25.87,25.87,0,0,1-2.38,1.65l-1.24.77-.62.4c-.22.12-.44.21-.67.31-.45.21-.89.43-1.37.62a4.74,4.74,0,0,1-.79.21,1.5,1.5,0,0,1-1.23-.3h0l0,0a1.42,1.42,0,0,1-.3-.81,2.39,2.39,0,0,1,0-.54,6.17,6.17,0,0,1,.15-.91,8.61,8.61,0,0,1,.58-1.69,29.47,29.47,0,0,1,1.54-3,33.17,33.17,0,0,1,3.89-5.34c.72-.82,1.48-1.6,2.26-2.36a18.88,18.88,0,0,1,2.68-2.21,11.64,11.64,0,0,1,3.37-1.59,7.86,7.86,0,0,1,2-.27,12.39,12.39,0,0,1,2,.32l.09,0,.08,0a4.87,4.87,0,0,1,2.51,2.63,8.41,8.41,0,0,1,.56,3.07v.11c0,.07,0,.07-.06.06s-.07,0,0,.05l2.2,1.75-2.42-.23a3.81,3.81,0,0,0-1.27.22c-.46.17-.93.35-1.39.56a28,28,0,0,0-2.72,1.4A51.2,51.2,0,0,0,455.5,732.46Z"/></g></svg>